<svg xmlns="http://www.w3.org/2000/svg" xmlns:xlink="http://www.w3.org/1999/xlink" width="500" zoomAndPan="magnify" viewBox="0 0 375 374.999991" height="500" preserveAspectRatio="xMidYMid meet" version="1.0"><defs><clipPath id="599b3807c1"><path d="M 187.5 0 C 83.945312 0 0 83.945312 0 187.5 C 0 291.054688 83.945312 375 187.5 375 C 291.054688 375 375 291.054688 375 187.5 C 375 83.945312 291.054688 0 187.5 0 " clip-rule="nonzero"/></clipPath><clipPath id="512dc5ccb8"><path d="M 41.289062 58.832031 L 270 58.832031 L 270 271 L 41.289062 271 Z M 41.289062 58.832031 " clip-rule="nonzero"/></clipPath><clipPath id="63a0af9e01"><path d="M 132 105 L 333.789062 105 L 333.789062 316 L 132 316 Z M 132 105 " clip-rule="nonzero"/></clipPath></defs><g clip-path="url(#599b3807c1)"><rect x="-37.5" width="450" fill="#fc7703" y="-37.499999" height="449.999989" fill-opacity="1"/></g><g clip-path="url(#512dc5ccb8)"><path fill="#ffffff" d="M 269.683594 134.175781 C 269.683594 92.660156 235.917969 58.882812 194.417969 58.882812 L 116.554688 58.882812 C 75.054688 58.882812 41.289062 92.660156 41.289062 134.175781 L 41.289062 154.738281 C 41.289062 187.125 61.878906 215.792969 92.523438 226.078125 L 95.535156 227.085938 L 93.941406 229.835938 C 89.855469 236.886719 84.300781 247.964844 76.96875 263.699219 C 76.089844 265.589844 76.484375 267.847656 77.953125 269.328125 C 79.410156 270.785156 81.734375 271.195312 83.558594 270.347656 L 171.753906 230.03125 L 194.417969 230.03125 C 235.917969 230.03125 269.683594 196.257812 269.683594 154.738281 Z M 259.695312 154.738281 C 259.695312 190.75 230.410156 220.050781 194.417969 220.050781 L 170.664062 220.050781 C 169.953125 220.050781 169.234375 220.207031 168.585938 220.503906 L 91.882812 255.574219 L 95.203125 248.976562 C 98.234375 242.949219 103.71875 232.328125 106.355469 228.890625 L 106.652344 228.503906 L 107.070312 228.25 C 108.382812 227.457031 109.242188 226.136719 109.4375 224.617188 C 109.777344 221.96875 107.980469 219.527344 105.347656 219.0625 C 74.015625 213.582031 51.273438 186.53125 51.273438 154.738281 L 51.273438 134.175781 C 51.273438 98.164062 80.558594 68.863281 116.554688 68.863281 L 194.414062 68.863281 C 230.410156 68.863281 259.695312 98.164062 259.695312 134.175781 Z M 259.695312 154.738281 " fill-opacity="1" fill-rule="nonzero"/></g><path fill="#ffffff" d="M 96.652344 132.011719 C 88.828125 132.011719 82.464844 138.371094 82.464844 146.1875 C 82.464844 154.007812 88.828125 160.367188 96.652344 160.367188 C 104.472656 160.367188 110.839844 154.007812 110.839844 146.1875 C 110.839844 138.371094 104.476562 132.011719 96.652344 132.011719 Z M 96.652344 132.011719 " fill-opacity="1" fill-rule="nonzero"/><path fill="#ffffff" d="M 214.320312 132.011719 C 206.496094 132.011719 200.132812 138.371094 200.132812 146.1875 C 200.132812 154.007812 206.5 160.367188 214.320312 160.367188 C 222.144531 160.367188 228.507812 154.007812 228.507812 146.1875 C 228.507812 138.371094 222.144531 132.011719 214.320312 132.011719 Z M 214.320312 132.011719 " fill-opacity="1" fill-rule="nonzero"/><path fill="#ffffff" d="M 155.484375 132.011719 C 147.664062 132.011719 141.300781 138.371094 141.300781 146.1875 C 141.300781 154.007812 147.664062 160.367188 155.484375 160.367188 C 163.308594 160.367188 169.671875 154.007812 169.671875 146.1875 C 169.671875 138.371094 163.308594 132.011719 155.484375 132.011719 Z M 155.484375 132.011719 " fill-opacity="1" fill-rule="nonzero"/><g clip-path="url(#63a0af9e01)"><path fill="#ffffff" d="M 142.445312 252.359375 L 132.167969 257.054688 C 145.277344 268.152344 162.179688 274.894531 180.65625 274.894531 L 203.324219 274.894531 L 291.511719 315.210938 C 293.339844 316.054688 295.664062 315.648438 297.121094 314.191406 C 298.589844 312.710938 298.984375 310.449219 298.101562 308.5625 C 290.773438 292.828125 285.21875 281.75 281.132812 274.699219 L 279.539062 271.949219 L 282.554688 270.9375 C 313.199219 260.65625 333.789062 231.984375 333.789062 199.601562 L 333.789062 179.039062 C 333.789062 142.34375 307.382812 111.785156 272.597656 105.164062 C 273.929688 108.742188 275.011719 112.441406 275.847656 116.230469 C 275.863281 116.234375 275.882812 116.242188 275.902344 116.25 C 275.878906 116.242188 275.859375 116.234375 275.839844 116.230469 C 277.105469 122.011719 277.820312 128.019531 277.820312 134.191406 L 277.820312 154.75 C 277.820312 200.742188 240.414062 238.160156 194.425781 238.160156 L 173.53125 238.160156 M 265.636719 269.476562 L 265.636719 269.472656 " fill-opacity="1" fill-rule="nonzero"/></g></svg>